<?xml version="1.0" standalone="no"?>
<!DOCTYPE svg PUBLIC "-//W3C//DTD SVG 20010904//EN"
 "http://www.w3.org/TR/2001/REC-SVG-20010904/DTD/svg10.dtd">
<svg version="1.0" xmlns="http://www.w3.org/2000/svg"
 width="128.000000pt" height="128.000000pt" viewBox="0 0 128.000000 128.000000"
 preserveAspectRatio="xMidYMid meet">
<metadata>
Created by potrace 1.11, written by Peter Selinger 2001-2013
</metadata>
<g transform="translate(0.000000,128.000000) scale(0.100000,-0.100000)"
fill="#000000" stroke="none">
<path d="M489 1156 c-2 -2 -30 -7 -62 -10 -32 -4 -64 -9 -70 -11 -7 -3 -24 -7
-40 -9 -38 -6 -128 -49 -150 -70 -9 -10 -17 -29 -17 -43 0 -14 -9 -36 -20 -50
-19 -25 -20 -41 -20 -378 l0 -352 23 -20 c30 -28 92 -58 147 -72 25 -7 52 -15
60 -18 8 -3 40 -8 70 -10 30 -3 57 -8 60 -12 3 -4 36 -6 74 -5 42 1 63 -2 55
-7 -8 -5 -9 -9 -3 -9 6 0 14 3 18 7 11 11 86 12 80 1 -4 -6 1 -7 12 -1 27 12
48 10 70 -7 18 -14 18 -14 5 3 -15 19 -15 19 67 20 23 0 42 4 42 8 0 4 9 6 20
4 11 -2 22 1 25 6 4 5 10 7 15 4 5 -3 24 1 41 10 17 9 28 12 25 7 -11 -18 22
-21 36 -4 12 15 11 16 -4 3 -10 -7 -18 -9 -18 -3 0 5 14 15 31 22 26 11 32 11
41 -1 6 -10 7 -7 2 11 -3 14 -3 22 0 19 7 -7 58 35 56 46 0 3 6 13 15 21 8 9
15 20 15 27 0 6 -6 2 -14 -9 -13 -17 -14 -15 -12 29 1 28 8 53 17 59 11 8 11
9 -3 5 -15 -5 -16 18 -17 281 -1 269 -3 289 -21 314 -11 15 -20 38 -20 51 0
49 -76 93 -214 123 -63 14 -406 30 -417 20z"/>
<path d="M986 122 c-3 -5 1 -9 9 -9 8 0 12 4 9 9 -3 4 -7 8 -9 8 -2 0 -6 -4
-9 -8z"/>
<path d="M906 102 c-3 -5 1 -9 9 -9 8 0 12 4 9 9 -3 4 -7 8 -9 8 -2 0 -6 -4
-9 -8z"/>
<path d="M636 82 c-3 -5 1 -9 9 -9 8 0 12 4 9 9 -3 4 -7 8 -9 8 -2 0 -6 -4 -9
-8z"/>
<path d="M815 80 c-3 -6 1 -7 9 -4 18 7 21 14 7 14 -6 0 -13 -4 -16 -10z"/>
</g>
</svg>
